<?xml version="1.0" encoding="UTF-8" standalone="no"?>
<!-- Created with Inkscape (http://www.inkscape.org/) -->

<svg
   width="512"
   height="512"
   viewBox="0 0 512 512"
   version="1.1"
   id="svg1"
   xml:space="preserve"
   inkscape:version="1.3.1 (9b9bdc1480, 2023-11-25, custom)"
   sodipodi:docname="loupvagabond"
   xmlns:inkscape="http://www.inkscape.org/namespaces/inkscape"
   xmlns:sodipodi="http://sodipodi.sourceforge.net/DTD/sodipodi-0.dtd"
   xmlns="http://www.w3.org/2000/svg"
   xmlns:svg="http://www.w3.org/2000/svg"><sodipodi:namedview
     id="namedview1"
     pagecolor="#ffffff"
     bordercolor="#000000"
     borderopacity="0.25"
     inkscape:showpageshadow="2"
     inkscape:pageopacity="0.0"
     inkscape:pagecheckerboard="0"
     inkscape:deskcolor="#d1d1d1"
     inkscape:document-units="px"
     inkscape:zoom="1.6241359"
     inkscape:cx="439.92624"
     inkscape:cy="224.11918"
     inkscape:window-width="2560"
     inkscape:window-height="1376"
     inkscape:window-x="0"
     inkscape:window-y="0"
     inkscape:window-maximized="1"
     inkscape:current-layer="g2" /><defs
     id="defs1" /><g
     inkscape:label="Layer 1"
     inkscape:groupmode="layer"
     id="layer1"
     style="display:inline"><g
       transform="matrix(0.03461863,0,0,-0.03820605,66.397991,502.3621)"
       fill="#cddc39"
       stroke="none"
       id="g12"
       style="stroke:#272a1f;stroke-opacity:1"><path
         d="m 2020,12794 c -292,-35 -532,-121 -731,-263 -315,-225 -549,-568 -709,-1038 -21,-62 -37,-113 -34,-113 2,0 30,13 62,29 142,71 377,141 582,173 56,8 178,13 355,12 296,0 404,-13 645,-74 815,-207 1379.0405,-494.373 2083.0405,-1435.373 45,-60 -44.5039,-36.603 70.528,38.52 120.7895,78.883 99.6623,-73.457 70.6623,44.543 -57,238 -118.2308,451.31 -238.2308,715.31 -14,31 -24,57 -22,57 2,0 40,-7 83,-15 98,-19 184,-19 227,-1 43,18 79,77 79,130 0,68 -37,122 -177,261 -541,537 -1205,889 -1913,1014 -111,20 -260,39 -348,44 -27,2 38,4 145,5 544,5 1206,-115 1725,-312 79,-30 79,-31 -30,51 -472,353 -980,581 -1470,659 -89,14 -388,26 -455,18 z"
         id="path1"
         sodipodi:nodetypes="cccssccccsccscsscccccccc"
         style="stroke:#272a1f;stroke-opacity:1" /><path
         d="m 2325,10319 c -228,-23 -429,-71 -550,-132 -120,-60 -244,-177 -428,-402 -181,-222 -303,-342 -392,-386 -62,-30 -79,-34 -150,-34 -108,0 -172,30 -264,122 -80,80 -142,171 -240,348 -39,72 -71,125 -71,119 0,-7 25,-72 55,-145 82,-197 159,-327 307,-513 16,-21 14,-23 -134,-121 -132,-88 -328,-252 -328,-275 0,-4 49,25 108,64 207,137 382,210 489,204 l 56,-3 -129,-74 C 485,8995 380,8924 265,8828 175,8753 55,8618 23,8555 c -13,-26 -8,-23 38,21 220,208 469,369 668,433 132,43 215,54 370,49 165,-5 188,-12 393,-115 271,-135 564,-192 996,-193 h 202 v 130 130 h -34 c -175,0 -596,46 -811,89 -152,31 -303,90 -415,162 -76,49 -80,66 -41,160 105,251 310,478 536,592 168,85 346,125 600,136 l 160,6 v 85 85 l -140,1 c -77,1 -176,-2 -220,-7 z"
         id="path3"
         style="stroke:#272a1f;stroke-opacity:1" /><path
         d="m 2880,10217 v -84 l 108,-22 c 294,-62 637,-213 830,-367 72,-56 78.347,-49.3785 67.347,-59.3785 -2,-2 -101.8023,9.8531 -61.8003,-43.406 C 3563.5467,9816.2155 3357,9910 3118,9960 c -377,79 -832,16 -1203,-165 -145,-71 -234,-134 -342,-242 -62,-61 -73,-77 -73,-106 0,-22 8,-43 23,-59 107,-115 511,-211 1042,-249 131,-9 208,-8 420,5 307.2143,-1.1801 39.6184,-89.463 354.6184,35.537 14.3193,12.2581 -18.2478,-60.6369 -88.2478,-104.6369 C 3085.3706,8970.9001 3381,9041 3026,9024 l -146,-7 v -133 l -678.3831,-128.9938 95.5432,19.222 c 190.0328,53.2071 343.5332,142.9723 747.4611,357.2556 48,100 1010.0282,611.0971 937.0282,734.0971 C 3853.6494,10084.581 3720,10092 3253,10220 c -125,34 -333,80 -364,80 -5,0 -9,-37 -9,-83 z"
         id="path5"
         sodipodi:nodetypes="sccccccccscccccccccccccss"
         style="stroke:#272a1f;stroke-opacity:1" /><path
         d="m 3110,6978 c -367,-256 -753,-429 -1132,-508 -234,-48 -311,-55 -618,-55 -292,0 -296,0 -405,28 -217,56 -380,153 -564,334 l -114,113 7,-43 c 9,-60 246.31848,-707.6394 298.31848,-872.6394 603.97982,-50.0063 239.1445,-29.8942 371.4322,-824.8838 C 1311.7507,4568.4768 1968,3590 2544,2930 c 237,-271 581,-646 562,-612 -4,7 -116,169 -249,360 -436,630 -660,974 -867,1337 -92,161 -220,406 -220,422 0,4 15,-7 32,-24 53,-48 283,-232 409,-326 245,-181 463,-293 733,-377 102,-31 407,-102 414,-96 2,2 -27,14 -65,26 -37,13 -131,47 -208,78 -532,208 -977,508 -1312,883 -225,252 -376,482 -530,808 -124,263 -393,886 -393,911 0,12 161,-34 199,-56 29,-17 78,-80 111,-144 7,-14 103,-164 213,-335 573,-888 708,-1071 899,-1216 112,-86 164,-107 289,-119 57,-5 544,-11 1081,-13 l 978,-4 107,146 c 60,80 185,245 279,366 l -607,599 c -244,-303 -298,-349 -458,-393 -180,-50 -565,-89 -961,-98 -304,-6 -394,2 -448,44 -18,14 -77,75 -129,137 -91,106 -610,751 -741,921 l -61,80 82,7 c 364,33 666,95 1022,213 290,95 459,181 571,290 103,100 110,184 21,260 -69,60 -62,61 -187,-27 z"
         id="path8"
         sodipodi:nodetypes="ccsccccccccccsccccccccsccccccccccccscccccccc"
         style="stroke:#272a1f;stroke-opacity:1" /><path
         d="m 3996,4339 c -79,-62 11,-109 284,-149 237,-34 509,-45 1175,-45 762,0 476.3643,-58.9454 737.3643,6.0546 -163.8188,231.16 -26.4371,67.69 -84.4371,112.69 l -58.2013,99.6941 L 5425,4360 H 4023 Z"
         id="path11"
         sodipodi:nodetypes="ccscccccc"
         style="stroke:#272a1f;stroke-opacity:1" /><path
         d="m 4741,3283 c 8,-10 52,-62 98,-118 245,-293 269,-410 160,-798 -69,-248 -74,-284 -73,-562 1,-311 14,-433 104,-974 75,-446 102,-565 156,-677 55,-116 114,-154 239,-154 125,0 184,38 239,154 54,112 81,231 156,677 90,537 103,662 104,974 1,278 -4,314 -73,562 -107,383 -86,498 142,774 50,61 100,122 110,135 l 19,24 h -697 c -657,0 -697,-1 -684,-17 z"
         id="path12"
         style="stroke:#272a1f;stroke-opacity:1" /></g><path
       style="fill:#000000;stroke:#272a1f;stroke-width:0.870748;stroke-opacity:1"
       d="m 105.82361,506.48813 c -0.0152,-0.39752 1.16044,-4.08899 2.61261,-8.20329 11.98989,-33.96991 14.67356,-68.18655 7.21925,-92.04485 -2.74732,-8.79309 -7.74701,-18.92847 -12.33451,-25.00457 -10.589013,-14.02505 -22.149363,-14.998 -39.585379,-3.33162 -6.966607,4.66134 -24.198727,21.78728 -28.037652,27.86491 -4.316786,6.83414 -7.124802,13.19839 -10.565202,23.94558 -2.381863,7.4405 -3.426639,9.76343 -3.628697,8.06796 -0.683267,-5.73331 6.68622,-26.13148 17.670518,-48.91064 3.673083,-7.61721 9.141316,-19.76415 12.151629,-26.9932 9.490698,-22.79121 17.33984,-37.40894 35.516162,-66.14299 5.715476,-9.03531 10.06512,-16.73085 9.665875,-17.1012 -0.399246,-0.37034 -5.036105,-2.92895 -10.304132,-5.68579 -13.118505,-6.86513 -22.722302,-13.58344 -34.165355,-23.90031 -12.191792,-10.99191 -19.951569,-20.0177 -24.035576,-27.957 -4.527372,-8.8012 -4.367742,-9.64342 2.690727,-14.19642 17.763512,-11.4582 34.397845,-17.38171 68.571428,-24.41834 16.277954,-3.35178 23.132304,-5.46724 35.900024,-11.07985 l 8.50814,-3.74012 -6.09524,-1.11091 c -8.1561,-1.48651 -13.58601,-3.32606 -20.89796,-7.07983 -12.85441,-6.59913 -25.903028,-4.2062 -40.094278,7.35274 -2.612092,2.12757 -4.749257,3.50235 -4.749257,3.05507 0,-1.30969 8.619495,-8.5516 15.441939,-12.97399 3.464495,-2.24573 6.305311,-4.37702 6.312925,-4.7362 0.02896,-1.36625 -4.961857,-0.54919 -9.473252,1.55089 -2.583889,1.20281 -4.869991,2.01492 -5.080227,1.80468 -0.210235,-0.21023 1.609978,-1.86957 4.044919,-3.68743 2.434941,-1.81785 4.427165,-3.62884 4.427165,-4.02441 0,-0.39558 -1.371429,-2.75569 -3.047619,-5.24469 -4.123433,-6.12295 -3.832654,-6.82239 0.838266,-2.01638 3.693984,3.80084 4.12387,3.99829 8.704974,3.99829 4.34266,0 5.178093,-0.32282 8.450405,-3.26531 1.99723,-1.79592 7.26971,-7.83787 11.71664,-13.42658 4.44693,-5.5887 9.81787,-11.3533 11.93543,-12.81021 4.98163,-3.42745 14.54763,-6.04313 24.7144,-6.75779 l 8.08886,-0.56859 v 3.05095 3.05095 l -6.9307,0.578 c -7.744,0.64582 -16.54726,3.11104 -20.49787,5.74011 -5.16861,3.43963 -11.70101,10.78407 -14.74648,16.5796 -4.02702,7.66343 -4.03256,10.26089 -0.0275,12.85546 6.85146,4.43852 14.47073,6.37625 33.05967,8.40771 l 10.44898,1.1419 5.22449,-3.02348 c 2.87347,-1.66291 5.3103,-3.10184 5.41519,-3.19762 0.10488,-0.0958 -4.40124,-0.18983 -10.01361,-0.20902 -20.30636,-0.0694 -40.75785,-5.4563 -41.82887,-11.01765 -0.47831,-2.48367 8.33537,-10.26953 15.65946,-13.83331 8.74413,-4.25477 15.1183,-5.90457 25.10796,-6.49864 10.77149,-0.64056 17.93968,1.03494 28.44726,6.64928 7.10074,3.79402 8.11534,4.11746 9.11972,2.90727 0.95968,-1.15635 0.74004,-1.67421 -1.45654,-3.43427 -5.2277,-4.18878 -16.7141,-9.45098 -25.44377,-11.65641 -3.3102,-0.83627 -3.70068,-1.20701 -3.70068,-3.5136 0,-3.3068 0.31287,-3.2944 13.69521,0.54286 14.35373,4.1158 17.72936,5.64831 20.89154,9.48458 l 2.64402,3.20766 7.59663,-5.61724 c 10.48062,-7.74976 20.08234,-13.33297 31.36308,-18.23702 13.63664,-5.928214 18.01398,-7.059291 44.78652,-11.572556 36.01823,-6.071882 40.82655,-7.953739 68.7495,-26.906818 9.39192,-6.374895 23.73744,-15.597382 31.87894,-20.494417 8.1415,-4.897035 20.3177,-12.769901 27.05823,-17.495258 13.35545,-9.362661 17.52238,-11.490243 25.62666,-13.084664 4.89766,-0.963556 5.53357,-0.908081 7.67456,0.669502 3.36888,2.482341 6.83196,9.299223 8.54271,16.815843 1.28448,5.643721 2.04508,7.121873 5.60069,10.884354 6.63688,7.023043 7.35271,8.983272 7.31343,20.027211 -0.0433,12.173657 -2.498,21.173526 -13.88241,50.898293 -6.13307,16.0135 -7.60817,23.23824 -5.69006,27.86894 0.6032,1.45625 1.41096,2.64773 1.79503,2.64773 0.94896,0 5.18515,-3.52154 13.23121,-10.99909 3.70668,-3.44478 9.45015,-8.23487 12.76326,-10.64462 l 6.02385,-4.38137 4.3455,4.59473 c 7.68442,8.12514 10.62868,16.32298 10.60488,29.52763 -0.0225,12.50724 -3.59619,23.15884 -11.73757,34.98504 -2.30038,3.34154 -12.25807,16.46807 -22.12818,29.17007 -21.17338,27.24833 -24.90484,32.70477 -30.50929,44.61301 -12.04682,25.59685 -17.28997,51.34977 -16.36066,80.35909 0.5282,16.48847 -0.58727,13.6271 -1.90937,-4.89788 -0.89615,-12.55647 -0.42753,-24.45701 1.67582,-42.5579 0.47304,-4.07075 0.86304,-9.68457 0.86667,-12.47514 0.006,-4.45139 -0.30562,-5.38601 -2.53866,-7.61905 -4.37338,-4.37338 -8.51905,-3.36682 -16.47661,4.00049 -10.38073,9.61072 -18.18816,22.34119 -20.42411,33.30267 -1.2022,5.89367 -2.87633,8.79507 -1.87736,3.25362 1.43682,-7.9703 3.9952,-16.53418 6.51957,-21.82353 6.36782,-13.34256 20.16599,-27.88739 38.92936,-41.03595 24.6594,-17.28025 35.05135,-28.09104 43.36552,-45.11331 5.7188,-11.70857 8.205,-20.76988 8.8487,-32.25026 0.62862,-11.21168 -1.00626,-17.54625 -5.75377,-22.29376 -3.96859,-3.96859 -7.02645,-4.83151 -12.20911,-3.44536 -6.11406,1.63526 -17.09462,8.93674 -49.45482,32.88476 -13.23534,9.79476 -13.25992,9.81939 -16.77162,16.80382 -1.93427,3.84707 -3.76835,6.99467 -4.07571,6.99467 -0.30738,0 -0.32073,-4.40816 -0.0297,-9.79591 1.04654,-19.37302 7.44713,-34.93297 21.60241,-52.51584 15.37628,-19.09955 17.56948,-22.64486 23.67132,-38.26478 1.68266,-4.307398 5.4945,-12.925507 8.47076,-19.151357 7.32864,-15.330354 9.61573,-22.224144 9.69761,-29.230757 0.0815,-6.975633 -1.50069,-10.40593 -6.24908,-13.548268 -3.01483,-1.995114 -3.36811,-2.569004 -2.81187,-4.567715 2.3064,-8.28747 -2.65751,-13.969587 -8.27657,-9.474085 -1.63126,1.305083 -1.31264,4.886962 0.65752,7.391611 1.24995,1.589065 1.48953,2.52859 0.84332,3.307216 -1.38743,1.671761 -9.05845,4.726673 -13.3438,5.314045 -3.22904,0.442589 -4.14943,0.216926 -5.78465,-1.418292 -1.68529,-1.685288 -1.86847,-2.51874 -1.37355,-6.249582 0.53913,-4.064203 0.47688,-4.254546 -1.11316,-3.40358 -2.36193,1.264062 -6.26637,6.067473 -7.68623,9.455912 -0.65808,1.570479 -2.76663,9.407214 -4.68567,17.414966 -4.91884,20.525283 -8.98715,28.50201 -23.41335,45.906486 -18.67153,22.52626 -24.0972,33.87898 -25.80108,53.9864 l -0.59029,6.96598 -1.2217,-3.47502 c -1.47436,-4.19373 -1.71985,-18.66907 -0.39976,-23.57153 1.24083,-4.60806 8.13044,-22.03611 15.12467,-38.25957 7.18313,-16.661602 7.61766,-18.013904 7.61766,-23.70712 0,-4.062654 -0.35733,-5.083491 -2.54527,-7.271425 -2.00597,-2.005975 -3.32091,-2.545264 -6.20607,-2.545264 -8.29393,0 -22.67691,10.057668 -30.57287,21.378868 -3.27249,4.692098 -4.72306,6.187397 -4.90017,5.051294 -1.04458,-6.700515 -1.60003,-6.922609 -12.80418,-5.119682 -17.29854,2.783612 -25.05718,6.623445 -29.35086,14.526059 -1.32658,2.4416 -1.3475,2.98572 -0.20004,5.20464 0.70477,1.3629 1.27186,2.7476 1.2602,3.07713 -0.0117,0.32953 -4.31017,0.50017 -9.55224,0.37919 -9.05762,-0.20902 -9.80812,-0.0877 -15.10972,2.44252 -3.30535,1.57749 -7.07721,4.28816 -9.25597,6.65183 -6.6581,7.22319 -11.25543,19.8389 -11.40835,31.30611 -0.0386,2.8958 -0.56398,1.79479 -3.11618,-6.53061 -4.44021,-14.48417 -5.55348,-16.62414 -10.56039,-20.29954 -5.48841,-4.02887 -7.87015,-4.06056 -15.5609,-0.20706 -10.24384,5.13275 -22.43855,16.72617 -32.83351,31.21459 -11.20381,15.61577 -13.9669,33.59669 -7.656,49.82158 1.48755,3.82438 2.70645,7.30648 2.70865,7.738 0.002,0.43152 -4.01232,-3.31734 -8.92117,-8.33081 -7.4189,-7.57702 -10.13104,-9.71827 -16.07037,-12.68765 -10.17718,-5.0881 -14.4245,-5.75739 -32.90922,-5.18582 -16.44049,0.50836 -24.155681,1.79337 -36.621697,6.09959 -10.182506,3.51741 -16.142464,6.85799 -22.041142,12.35412 -7.261317,6.76579 -8.77646,10.11765 -8.801029,19.46995 -0.01704,6.48757 0.273912,7.82927 2.67456,12.33335 4.600182,8.63082 18.417163,22.32353 28.916743,28.65667 1.821109,1.09845 3.465837,1.84246 3.654951,1.65334 0.189115,-0.18911 -1.398842,-5.80422 -3.528793,-12.47803 -2.129952,-6.6738 -3.868294,-12.53927 -3.862983,-13.03439 0.0053,-0.49512 0.990747,0.34444 2.189858,1.86568 3.762383,4.77311 12.35557,10.58425 18.42224,12.45805 4.397912,1.35839 7.978542,1.74105 15.823712,1.69112 5.57676,-0.0355 11.90283,-0.32938 14.05794,-0.65306 3.68513,-0.5535 3.93522,-0.7652 4.20153,-3.55675 0.45738,-4.79428 -2.24768,-10.27062 -8.17889,-16.55803 -6.04491,-6.40791 -11.78692,-9.96466 -17.79135,-11.02041 l -3.91837,-0.68897 4.35374,-1.0605 c 2.39456,-0.58327 7.3451,-1.09812 11.00121,-1.14408 6.09232,-0.0766 7.21947,0.20416 13.4966,3.36204 3.76702,1.89511 11.90338,6.96888 18.0808,11.27506 12.93238,9.01495 10.91573,8.96428 22.61799,0.56828 6.49237,-4.65806 6.93822,-4.84014 8.46598,-3.45754 0.88698,0.8027 1.8469,2.1974 2.13316,3.09931 0.73421,2.31329 -2.40566,6.99882 -6.6707,9.95451 l -3.59006,2.4879 4.23932,1.09935 c 5.09211,1.3205 13.74419,1.46647 15.98053,0.26962 1.47752,-0.79075 1.60932,-2.12664 1.56774,-15.89116 -0.0408,-13.49192 0.18729,-15.91778 2.2313,-23.73532 2.59096,-9.9094 8.85297,-23.32874 12.39295,-26.55782 2.07823,-1.89571 2.30041,-1.95194 1.72011,-0.43538 -6.11963,15.99355 -7.7872,25.36804 -7.20247,40.4898 0.33552,8.67678 0.95554,13.35127 2.36768,17.85034 2.51931,8.02649 8.1006,18.70208 11.73303,22.44227 7.1454,7.35738 17.30629,3.73422 22.39414,-7.9853 1.51654,-3.49327 1.84064,-7.02729 2.52366,-27.51819 1.17429,-35.22971 1.86679,-38.84965 12.43677,-65.01156 12.57938,-31.13542 16.62455,-39.31215 20.78611,-42.01611 1.07845,-0.70071 8.03429,-3.59035 15.45742,-6.42142 7.42313,-2.83106 15.19988,-6.01705 17.28166,-7.07996 4.63442,-2.36625 5.62604,-1.85527 1.70725,0.87971 -1.58404,1.10553 -5.63257,4.65538 -8.99673,7.88857 -4.70985,4.5265 -7.58245,6.47504 -12.48985,8.47212 -11.29683,4.59728 -17.07196,9.81268 -22.29279,20.13218 -5.22079,10.31941 -10.57236,29.84277 -12.56757,45.84836 -1.96353,15.75153 3.16384,28.42847 13.52748,33.44542 5.90572,2.85891 8.90976,1.62862 18.64539,-7.63609 8.55757,-8.14363 15.27948,-17.52196 24.3254,-33.93851 l 5.36511,-9.7366 v -7.77517 c 0,-9.05003 -1.44171,-13.39831 -5.06261,-15.26918 -4.25499,-2.1985 -9.97167,-3.35354 -16.34063,-3.30157 l -6.14973,0.0502 7.40136,-4.01901 c 4.07075,-2.21047 9.1205,-5.40321 11.22167,-7.09498 5.01974,-4.0417 10.98278,-13.30809 16.27552,-25.29169 2.35547,-5.33315 4.40562,-9.32783 4.55587,-8.87706 0.15026,0.45077 -0.9969,5.25241 -2.54924,10.67032 l -2.82243,9.85075 -0.0618,27.86395 c -0.072,32.47391 -0.19036,33.17617 -8.36506,49.63265 -4.03256,8.11795 -7.44425,13.26563 -15.29316,23.07483 -25.57747,31.9655 -33.14935,47.21691 -34.80028,70.09524 -1.07857,14.94692 1.54014,22.69171 15.35793,45.4206 13.92429,22.90408 16.1013,26.95963 20.89678,38.92888 4.11435,10.2692 4.52627,11.94447 4.9243,20.02721 0.23891,4.85133 0.0627,10.19202 -0.39147,11.86821 -0.79165,2.92147 -0.85254,2.79532 -1.47102,-3.04762 -2.44981,-23.14389 -10.18891,-38.84075 -27.36847,-55.51021 l -8.74959,-8.48979 -9.40768,-0.0286 c -16.34425,-0.0497 -41.4516,-1.62942 -46.11937,-2.90171 -5.99875,-1.63509 -6.73732,-2.13301 -5.45526,-3.67781 0.83325,-1.004 5.46806,-1.2286 25.35338,-1.2286 h 24.33373 l -8.11381,-6.8262 c -4.4626,-3.75442 -8.6516,-7.47686 -9.30888,-8.27211 -0.65728,-0.79525 -1.48998,-1.4459 -1.85043,-1.4459 -0.36046,0 -2.72174,2.98911 -5.24731,6.64246 l -4.59193,6.64246 -36.2243,-0.39141 c -32.51827,-0.35136 -36.55802,-0.55096 -39.48616,-1.95092 -6.73047,-3.21788 -15.619,-15.1231 -30.74942,-41.18548 l -5.1724,-8.90954 -4.95541,-0.0156 c -2.72548,-0.009 -5.17244,0.33553 -5.43768,0.76469 -0.26525,0.42918 1.12012,4.64142 3.0786,9.36055 13.26474,31.96259 29.73875,50.89154 57.56633,66.14484 7.8633,4.31016 5.65052,4.55072 -3.38611,0.36812 -7.42103,-3.43481 -14.64847,-8.49098 -24.51313,-17.14885 -4.61285,-4.04853 -8.51325,-6.98221 -8.66757,-6.51927 -0.7228,2.16841 16.48797,33.65283 32.50469,59.46223 3.60327,5.80634 6.39049,10.7179 6.19381,10.91457 -0.40043,0.40043 -13.42319,-15.80822 -20.75997,-25.83869 -10.8326,-14.80979 -30.73992,-45.94331 -41.56556,-65.00533 -4.01918,-7.07707 -4.613448,-8.78653 -5.297281,-15.23809 -0.682063,-6.43486 -0.731727,-5.87118 -0.433817,4.92369 0.443895,16.08472 1.802298,20.6412 13.239218,44.40817 11.83718,24.59876 15.45247,32.82887 19.12495,43.53741 3.98573,11.62198 5.39345,24.7387 3.9954,37.22816 -1.18725,10.60625 -5.84875,29.32858 -10.27393,41.26396 -4.91723,13.26251 -18.53642,40.61146 -18.65696,37.4654 z m 84.87027,-198.32946 c 10.34107,-1.25024 15.71612,-3.0465 19.59065,-6.54691 1.8754,-1.69431 3.6314,-3.77872 3.90223,-4.63203 0.31478,-0.99177 -1.41044,-4.57906 -4.78223,-9.94376 -5.69701,-9.06427 -12.17705,-21.84043 -12.1849,-24.02392 -0.003,-0.74371 -0.41293,-2.82157 -0.91167,-4.61749 -0.65546,-2.36019 -1.38192,-3.26531 -2.62078,-3.26531 -0.94268,0 -6.34853,2.32325 -12.01302,5.16276 -15.86389,7.95233 -28.31166,13.01692 -39.56727,16.09863 l -10.27407,2.81297 10.32977,13.86758 c 10.80543,14.50616 11.73755,15.5516 14.5721,16.34371 2.3213,0.64869 25.20487,-0.19784 33.95919,-1.25623 z m -80.5546,-33.65527 c -0.006,-0.35918 -1.31711,-3.00408 -2.91421,-5.87755 -2.4334,-4.3781 -3.5584,-5.49669 -6.94428,-6.90476 -2.222245,-0.92414 -4.253061,-1.46764 -4.512924,-1.20778 -0.259861,0.25986 0.558481,3.25385 1.818539,6.6533 2.216809,5.98063 2.408014,6.2071 5.903325,6.99209 4.68342,1.05182 6.66242,1.1544 6.64955,0.3447 z m 19.10094,-9.28059 2.11097,-2.25682 h -2.21982 c -1.22089,0 -3.43823,0.24368 -4.92742,0.54152 l -2.70761,0.54152 1.44904,2.45303 c 1.62312,2.74773 2.74052,2.52066 6.29484,-1.27925 z"
       id="path2" /><path
       style="fill:#000000;stroke:#272a1f;stroke-width:0.870748;stroke-opacity:1"
       d="M 209.25733,109.05858 C 201.86861,98.820956 187.33147,83.92488 179.33349,78.395884 168.04767,70.594002 152.17403,63.929975 136.6479,60.475739 c -5.06853,-1.127641 -9.46308,-1.36303 -19.77289,-1.059108 -13.4209,0.395634 -17.377234,1.185947 -27.091567,5.411776 l -3.386625,1.473215 0.562329,-2.811644 C 87.998283,58.294301 93.813326,45.77334 98.499364,38.641566 109.97878,21.170812 125.15554,13.11425 144.54422,14.19871 c 13.59938,0.760649 26.47353,4.981877 40.04552,13.130286 8.17344,4.907208 18.07161,11.932549 17.54874,12.455424 -0.18361,0.183609 -2.33604,-0.455362 -4.78319,-1.419937 -11.26427,-4.439961 -31.376,-8.313901 -48.23964,-9.291966 -12.34862,-0.7162 -13.66374,0.551202 -2.193,2.113427 22.20194,3.023734 46.08761,15.458751 64.70308,33.684804 11.50229,11.26166 13.5551,15.145702 9.92402,18.776785 -1.55286,1.552855 -2.44073,1.716789 -6.53061,1.205792 -2.60338,-0.32527 -4.73343,-0.313298 -4.73343,0.02661 0,0.339904 1.35631,4.597298 3.01402,9.460876 1.65771,4.863576 3.56098,11.201159 4.2295,14.083509 1.18845,5.12409 1.17111,5.27413 -0.77974,6.74565 -1.98896,1.50028 -2.01249,1.48109 -7.49216,-6.11139 z"
       id="path4" /><path
       style="fill:#000000;stroke:#13151e;stroke-width:0.870748;stroke-opacity:1"
       d="m 249.31036,500.64335 c -2.53402,-1.47824 -5.03151,-10.07912 -7.66803,-26.40724 -5.02544,-31.12288 -5.51233,-48.1735 -1.79348,-62.80754 3.42058,-13.46033 2.32875,-19.59433 -5.30841,-29.82313 l -3.41318,-4.57143 h 22.66766 c 12.46722,0 22.66766,0.22367 22.66766,0.49703 0,0.27337 -1.69814,2.91826 -3.77364,5.87755 -2.07551,2.95929 -4.31208,6.73591 -4.97016,8.3925 -1.65678,4.17059 -1.28151,11.4844 1.0814,21.07652 1.66806,6.77138 1.99562,10.38353 1.96109,21.62579 -0.0426,13.8672 -0.62737,19.52601 -4.3862,42.44462 -3.35881,20.47954 -5.39205,24.62621 -12.05066,24.57652 -1.9519,-0.0146 -4.20822,-0.4111 -5.01405,-0.88119 z"
       id="path6" /></g><g
     inkscape:groupmode="layer"
     id="layer3"
     inkscape:label="Layer 2"><g
       transform="matrix(0.04302059,0,0,-0.038852,20.472035,508.4547)"
       fill="#cddc39"
       stroke="none"
       id="g2"
       style="display:inline"><path
         d="m 9800,12793 c -200,-35 -347,-113 -590,-315 -228,-189 -410,-320 -642,-462 -158,-96 -608,-420 -978,-705 -217,-166 -331,-237 -495,-307 -239,-102 -390,-142 -815,-214 -328,-55 -538,-95 -651,-124 -246,-62 -660,-263 -933,-453 -223,-155 -578,-464 -866,-754 -91,-91 -204,-196 -251,-232 C 3389,9081 3001,8850 2685,8695 2341,8526 2158,8465 1725,8375 1256,8277 968,8184 656,8028 507,7954 436,7912 290,7815 106,7691 90,7676 90,7626 c 0,-86 69,-254 173,-422 74,-120 271,-349 482,-559 292,-293 510,-454 875,-649 80,-43 149,-81 153,-85 4,-4 -53,-109 -126,-232 C 1461,5368 1282,5045 1114,4716 928,4350 864,4204 740,3865 615,3521 542,3341 410,3050 199,2584 54,2154 9,1864 -4,1778 0,1750 24,1750 c 17,0 39,64 90,261 117,447 242,676 553,1014 242,263 366,366 547,456 204,100 300,109 444,38 228,-112 465,-527 582,-1023 50,-211 79,-639 61,-911 C 2273,1167 2150,586 2001,160 1961,47 1952,0 1968,0 c 24,0 73,86 177,310 256,550 394,984 497,1555 31,173 32,190 33,450 0,170 -5,303 -13,360 -48,333 -202,755 -570,1560 -218,477 -266,660 -278,1055 -5,151 -3,227 10,335 20,162 30,201 57,216 12,6 140,14 302,19 329,10 381,19 722,122 217,65 646,268 935,442 80,47 156,89 169,93 40,10 68,-32 76,-114 9,-89 19,-131 57,-228 84,-214 228,-484 382,-720 280,-427 603,-775 1051,-1136 353,-283 577,-553 750,-904 122,-248 169,-422 210,-790 14,-126 27,-234 29,-240 5,-17 25,66 37,155 15,106 5,397 -16,495 -31,142 -168,519 -255,699 -32,67 -138,261 -236,431 -308,539 -419,793 -445,1015 -25,222 1,542 66,793 89,347 330,780 727,1307 170,227 244,340 329,507 97,190 178,423 214,619 25,130 33,408 24,769 -14,536 -12,646 11,760 21,107 42,187 84,329 19,64 26,111 26,170 v 81 l -54,-140 c -126,-331 -210,-513 -301,-650 -113,-169 -203,-245 -440,-374 -218,-119 -226,-133 -58,-107 98,15 116,15 193,2 177,-31 277,-78 320,-148 34,-56 51,-160 52,-313 0,-105 -4,-157 -17,-200 -32,-113 -321,-660 -450,-855 -74,-111 -255,-314 -357,-400 -83,-70 -140,-100 -189,-100 -87,0 -236,115 -309,240 -84,141 -127,335 -117,524 18,330 138,888 258,1201 130,338 317,531 619,639 86,31 94,37 166,127 69,87 151,164 299,284 160,130 159,129 115,120 -42,-9 -118,-46 -178,-87 -57,-39 -173,-92 -422,-193 -356,-145 -371,-154 -443,-263 -60,-90 -70,-113 -295,-712 -365,-971 -370,-997 -392,-2080 -7,-374 -10,-423 -29,-495 -27,-101 -76,-205 -129,-271 -76,-96 -204,-132 -310,-89 -81,33 -170,160 -265,375 -115,263 -162,506 -161,835 0,344 60,640 194,970 22,54 39,99 37,101 -5,5 -124,-141 -166,-204 -119,-182 -219,-477 -273,-804 -19,-114 -22,-171 -22,-393 1,-143 6,-289 12,-325 9,-57 8,-68 -7,-90 -48,-68 -221,-66 -468,6 -162,47 -270,111 -511,302 -322,257 -500,370 -632,403 -90,23 -256,16 -385,-15 -170,-41 -177,-57 -36,-76 47,-6 103,-21 125,-32 154,-77 333,-263 421,-437 47,-94 56,-132 66,-290 l 11,-154 -59,-59 c -166,-169 -343,-268 -480,-268 -102,0 -324,66 -488,145 -328,157 -728,569 -866,893 -33,75 -34,82 -37,238 -3,151 -2,166 21,233 38,109 83,176 182,277 123,124 227,192 420,274 343,145 677,210 1084,210 189,0 305,-15 411,-52 248,-88 430,-225 624,-473 131,-166 196,-226 196,-178 0,9 -27,86 -61,170 -72,183 -87,249 -96,408 -18,363 80,689 302,999 194,273 428,531 583,645 94,69 248,149 304,158 55,8 117,-27 213,-123 65,-65 88,-95 105,-141 18,-48 150,-522 167,-600 12,-54 20,-12 27,135 11,254 48,400 154,607 47,91 71,124 137,190 67,68 98,90 188,135 l 109,55 h 126 c 70,0 175,-2 234,-5 139,-7 144,-2 90,83 -23,35 -42,74 -42,88 0,29 55,125 116,203 36,45 59,63 126,95 143,68 310,116 505,146 211,31 232,22 235,-102 0,-43 0,-86 -1,-97 -3,-36 28,4 102,128 39,67 82,137 96,156 118,162 307,323 488,413 140,71 201,68 283,-11 58,-57 70,-94 70,-217 0,-122 -15,-172 -165,-543 -202,-503 -344,-904 -379,-1074 -19,-91 -22,-327 -5,-443 16,-117 57,-240 75,-222 4,3 11,87 15,184 14,330 60,506 209,804 87,174 168,299 344,529 239,310 340,475 455,739 48,108 68,185 131,492 89,439 107,492 205,617 49,63 101,109 111,100 2,-3 -5,-30 -16,-61 -26,-73 -25,-112 3,-167 31,-63 72,-82 162,-77 121,7 355,120 355,171 0,7 -20,39 -45,70 -37,48 -45,66 -45,100 0,48 19,80 60,101 61,32 120,11 146,-51 21,-51 18,-157 -6,-204 -32,-63 -28,-75 45,-115 125,-70 175,-166 175,-337 0,-180 -60,-382 -211,-715 -103,-227 -186,-433 -239,-598 -104,-320 -205,-497 -513,-904 -77,-102 -165,-225 -195,-275 -140,-229 -263,-575 -307,-864 -19,-119 -30,-433 -18,-486 5,-22 13,-41 19,-43 6,-2 28,41 49,94 87,223 115,272 196,343 143,127 873,714 1083,872 148,111 264,174 353,190 58,11 64,10 115,-15 71,-35 143,-108 178,-182 137,-288 62,-893 -170,-1370 -181,-372 -442,-676 -821,-957 -432,-321 -667,-549 -883,-858 -139,-199 -219,-373 -281,-616 -31,-121 -80,-403 -71,-412 2,-2 16,13 31,32 22,29 29,53 40,145 28,223 137,461 329,716 89,117 262,290 316,314 91,42 182,20 225,-54 52,-89 52,-142 1,-635 -37,-353 -46,-576 -35,-845 13,-324 50,-621 81,-650 8,-7 9,28 4,125 -16,337 -18,575 -7,755 35,553 134,1000 333,1495 159,396 238,527 755,1253 540,758 619,887 709,1150 72,208 98,444 75,662 -33,300 -93,442 -272,641 l -83,92 -98,-75 c -145,-111 -325,-279 -469,-438 -133,-148 -170,-174 -195,-140 -28,38 -36,98 -31,215 6,135 22,195 130,485 141,377 253,750 318,1053 43,202 50,386 20,522 -30,137 -65,200 -175,317 -92,99 -94,102 -100,159 -25,237 -143,527 -232,569 -30,14 -98,18 -154,8 z"
         id="path1-2" /><path
         d="m 8308,7187 c -14,-18 -49,-75 -78,-127 -87,-159 -153,-247 -430,-580 -179,-217 -282,-374 -408,-625 -77,-153 -124,-225 -148,-225 -32,0 -63,114 -80,295 -6,61 -8,66 -15,40 -31,-108 -44,-269 -43,-540 1,-601 104,-1167 299,-1640 49,-119 153,-320 176,-341 18,-17 19,-15 19,35 0,38 -17,106 -60,235 -68,207 -109,368 -142,558 -20,117 -23,166 -23,403 0,320 21,499 91,780 101,403 219,660 489,1065 97,145 201,308 232,363 52,93 163,318 163,331 0,15 -20,3 -42,-27 z"
         id="path2-9"
         inkscape:label="path2-9" /><path
         style="fill:#000000;stroke:#c5c7fb;stroke-width:0.870748;stroke-opacity:0.999959"
         d="m 105.82361,506.52165 c -0.0152,-0.37908 1.35397,-4.65864 3.04267,-9.51015 9.34777,-26.85547 12.97592,-55.01751 9.91924,-76.99422 -1.93877,-13.9392 -8.77794,-30.60738 -16.44821,-40.08695 -8.390579,-10.36978 -17.476348,-12.68103 -29.060648,-7.3925 -8.843891,4.03745 -15.581734,9.24147 -26.256254,20.27918 -12.651164,13.0816 -16.765829,20.10099 -22.275995,38.00165 -1.415787,4.59941 -2.817367,8.58352 -3.114621,8.85358 -0.297255,0.27006 -0.304944,-1.59281 -0.01709,-4.13971 0.852346,-7.54141 7.11607,-24.46783 15.973381,-43.16474 4.562432,-9.63086 10.844336,-23.58412 13.959787,-31.00725 9.676425,-23.05585 18.649582,-39.57652 37.406424,-68.86977 4.474877,-6.98857 8.136139,-13.0666 8.136139,-13.50672 0,-0.44013 -4.016326,-2.7487 -8.92517,-5.13016 -23.6685,-11.48246 -51.461858,-35.85338 -60.150103,-52.74331 -4.567222,-8.87867 -4.410706,-9.63937 2.965031,-14.41071 15.876001,-10.27014 35.281724,-17.39152 62.646403,-22.98955 9.807156,-2.00627 20.965886,-4.63096 24.797176,-5.83266 15.11267,-4.74013 43.68631,-18.83325 55.87494,-27.55867 3.43326,-2.45776 11.21293,-8.77885 17.28815,-14.04688 20.60056,-17.86343 34.07808,-27.01453 50.30243,-34.15485 13.3459,-5.873515 20.00941,-7.735847 38.20069,-10.676406 31.48362,-5.08922 40.06465,-7.187012 51.47081,-12.582989 2.74417,-1.298201 15.72644,-9.482506 28.84948,-18.187346 13.12305,-8.70484 27.71807,-18.042815 32.43339,-20.751056 4.71532,-2.708241 14.25494,-8.907256 21.19916,-13.775589 6.94421,-4.868334 14.31868,-9.629933 16.38768,-10.581332 6.11431,-2.811558 14.41903,-4.568016 17.20588,-3.639064 3.28159,1.093863 7.7268,9.254412 9.63171,17.681964 1.2776,5.652264 2.02951,7.116178 5.5905,10.884354 5.90486,6.24843 7.16821,9.216289 7.59851,17.85034 0.29534,5.9261 -0.0714,9.136961 -1.84009,16.108844 -2.78329,10.971475 -6.55572,22.256104 -12.04789,36.03935 -4.87421,12.23236 -6.82562,19.02207 -6.82562,23.74888 0,3.29545 1.50626,7.69476 2.63458,7.69476 1.05168,0 5.36569,-3.56181 12.60351,-10.40591 3.83129,-3.62289 9.78079,-8.62664 13.2211,-11.11946 l 6.25512,-4.53238 4.45252,4.87177 c 7.59097,8.30573 10.4749,16.30342 10.45295,28.98797 -0.0158,9.1322 -1.75476,16.82048 -5.61788,24.83786 -3.48201,7.22647 -8.02246,13.58888 -28.15972,39.45954 -21.0722,27.0718 -24.07122,31.42659 -29.80206,43.27476 -12.70244,26.26156 -18.11186,52.07209 -17.15438,81.85034 0.52051,16.18814 -0.55266,13.72453 -1.90999,-4.38464 -0.90297,-12.04733 -0.38003,-25.53771 1.66962,-43.07114 0.47587,-4.07075 0.8682,-9.68457 0.87183,-12.47514 0.006,-4.45139 -0.30562,-5.38601 -2.53866,-7.61905 -4.37565,-4.37566 -8.51837,-3.36744 -16.49039,4.01324 -10.48552,9.70775 -18.17211,22.12159 -20.24121,32.6896 -0.60254,3.07749 -1.45711,5.98727 -1.89903,6.46618 -2.04888,2.22037 3.14616,-17.47289 6.45893,-24.48436 6.93221,-14.67204 22.6088,-30.50258 45.16595,-45.60944 24.66841,-16.52082 39.40643,-36.85242 44.49997,-61.38919 3.22449,-15.53319 1.65092,-27.63222 -4.3779,-33.66103 -3.95383,-3.95384 -7.0161,-4.8153 -12.19413,-3.43039 -6.11406,1.63526 -17.09462,8.93674 -49.45482,32.88476 -13.23534,9.79476 -13.25992,9.81939 -16.77162,16.80382 -1.93427,3.84707 -3.76835,6.99467 -4.07571,6.99467 -1.41116,0 0.60334,-19.95032 2.76961,-27.42857 4.07017,-14.05073 8.57199,-22.09663 21.12195,-37.75027 11.82923,-14.75467 16.27858,-22.12338 21.43421,-35.49792 1.63917,-4.252273 5.55737,-13.111824 8.70711,-19.687897 7.44694,-15.547802 9.40434,-21.479629 9.4155,-28.533298 0.0118,-7.435832 -1.06799,-9.885931 -5.83866,-13.248605 -2.42567,-1.70977 -3.78288,-3.256739 -3.50123,-3.990727 0.25298,-0.659244 0.70065,-2.703897 0.99485,-4.543674 0.45505,-2.845718 0.19264,-3.687301 -1.75787,-5.637819 -2.31358,-2.313578 -4.57672,-2.385149 -7.27058,-0.229932 -1.62994,1.304022 -1.31321,4.886251 0.65306,7.385944 0.95782,1.217675 1.74149,2.499437 1.74149,2.848362 0,1.103376 -10.07762,5.20839 -14.16004,5.767949 -3.31478,0.45434 -4.21668,0.237767 -5.86212,-1.407675 -1.67982,-1.67982 -1.86777,-2.524004 -1.38022,-6.199327 0.32006,-2.412718 0.21831,-4.254701 -0.23501,-4.254701 -1.33696,0 -7.18617,6.96599 -8.51037,10.135253 -0.68411,1.637318 -2.81397,9.528739 -4.73301,17.536491 -4.91884,20.525283 -8.98715,28.50201 -23.41335,45.906486 -18.65711,22.50887 -24.04176,33.76525 -25.82515,53.9864 l -0.61436,6.96598 -1.20858,-3.91836 c -0.66472,-2.15511 -1.23,-7.66272 -1.25618,-12.23915 -0.0584,-10.21432 1.62015,-15.47555 14.29162,-44.79487 7.60001,-17.584926 8.71101,-20.791613 9.11049,-26.295472 0.44208,-6.091065 0.37983,-6.34337 -2.20196,-8.92517 -2.11943,-2.119426 -3.39748,-2.656907 -6.31772,-2.656907 -8.29139,0 -22.67301,10.054852 -30.57287,21.374896 l -4.64858,6.661157 -0.53073,-3.224367 c -0.2919,-1.773402 -1.07558,-3.57418 -1.7415,-4.001728 -2.68711,-1.725237 -23.17335,2.272804 -31.35691,6.119532 -3.70707,1.742526 -8.30877,6.782897 -9.69271,10.616679 -0.27997,0.77557 0.23695,2.63679 1.14871,4.13606 0.91176,1.49926 1.36963,2.75961 1.01748,2.80077 -0.35214,0.0412 -4.77776,0.013 -9.8347,-0.0625 -8.09474,-0.12089 -9.78396,0.1234 -14.12325,2.04244 -12.76556,5.64554 -21.32538,20.90574 -21.55914,38.435 -0.0386,2.8958 -0.56398,1.79479 -3.11618,-6.53061 -4.44021,-14.48417 -5.55348,-16.62414 -10.56039,-20.29954 -5.5097,-4.0445 -8.11799,-4.08502 -15.69963,-0.24393 -13.98259,7.08402 -33.83015,28.91442 -39.76667,43.73951 -5.08653,12.70244 -5.17665,25.84498 -0.26117,38.08714 1.65759,4.12827 2.8075,7.50593 2.55537,7.50593 -0.25213,0 -4.40887,-4.05264 -9.23721,-9.00587 -7.33106,-7.52069 -9.95712,-9.59135 -15.92399,-12.55613 -10.1998,-5.068 -14.44838,-5.73465 -32.90922,-5.16382 -17.397927,0.53796 -24.629594,1.83819 -39.112526,7.03232 -9.32477,3.34422 -15.377383,6.9405 -21.150766,12.56713 -5.769313,5.62269 -7.219701,9.25319 -7.219701,18.07184 0,6.80606 0.27124,8.04704 2.814779,12.87822 3.384941,6.42934 17.756729,21.24793 25.480195,26.27235 12.197297,7.93483 28.258249,12.74724 36.191239,10.84415 4.09895,-0.98332 11.4298,-5.27809 16.81009,-9.84817 2.4503,-2.08131 2.48322,-2.22946 1.89651,-8.53701 -0.79928,-8.5928 -3.527,-14.03891 -10.27865,-20.52218 -6.11223,-5.86927 -10.52123,-8.42694 -16.31552,-9.46466 l -3.91837,-0.70176 4.35374,-1.0605 c 2.39456,-0.58327 7.37446,-1.09812 11.06645,-1.14408 6.27787,-0.0782 7.18035,0.1579 13.93197,3.64445 3.97059,2.05042 11.92131,7.02787 17.66825,11.06099 5.74694,4.03312 12.60408,8.4036 15.23809,9.71218 8.74059,4.3423 23.5735,6.52966 28.04633,4.13588 1.72602,-0.92375 1.78321,-1.4352 1.24131,-11.10204 -0.91603,-16.34106 1.98273,-32.03994 8.31358,-45.02416 2.48409,-5.09471 9.27036,-14.02969 8.22088,-10.82382 -0.23517,0.71837 -1.62362,4.91819 -3.08545,9.33293 -3.73884,11.29138 -4.71796,18.79894 -4.17698,32.02761 0.33421,8.17229 0.99371,13.0145 2.37189,17.41497 2.5036,7.99391 8.33276,19.16545 11.81973,22.65241 7.01351,7.01351 17.24155,3.43353 22.18867,-7.7664 1.70447,-3.85882 1.9603,-6.54472 2.6541,-27.86395 1.1482,-35.28239 1.83924,-38.90397 12.42092,-65.09484 12.57938,-31.13542 16.62455,-39.31215 20.78611,-42.01611 1.07845,-0.70071 8.03429,-3.59035 15.45742,-6.42142 7.42313,-2.83106 15.19988,-6.01705 17.28166,-7.07996 2.08178,-1.06292 3.95339,-1.76424 4.15913,-1.5585 0.20574,0.20574 -1.69345,1.93989 -4.22043,3.85368 -2.52698,1.91378 -6.55092,5.50268 -8.94207,7.97534 -2.96841,3.06958 -5.86877,5.06415 -9.14286,6.28752 -11.94409,4.46293 -18.65992,10.29572 -23.92966,20.78327 -5.23636,10.4211 -10.57294,29.90888 -12.5638,45.87963 -1.96353,15.75153 3.16384,28.42847 13.52748,33.44542 5.96736,2.88875 8.92122,1.6481 18.98671,-7.97456 8.74754,-8.3627 14.35684,-16.22736 23.96451,-33.60004 l 5.38468,-9.7366 v -7.77517 c 0,-9.05003 -1.44171,-13.39831 -5.06261,-15.26918 -4.25474,-2.19837 -9.97264,-3.35379 -16.30383,-3.29452 l -6.11292,0.0572 8.61203,-4.7583 c 4.73662,-2.61707 9.76912,-5.8406 11.18334,-7.1634 4.18258,-3.91222 10.44817,-14.12507 15.02957,-24.49809 2.35547,-5.33315 4.40562,-9.32783 4.55587,-8.87706 0.15026,0.45077 -0.9969,5.25241 -2.54924,10.67032 l -2.82243,9.85075 -0.0618,27.86395 c -0.0668,30.12404 -0.21398,31.33407 -5.3485,43.97279 -3.70242,9.11359 -8.27446,16.21122 -19.08467,29.62705 -26.08663,32.37437 -33.77257,49.07275 -33.85669,73.55662 -0.0536,15.59762 0.78539,17.65455 20.15101,49.40442 10.15351,16.64665 17.54288,32.28631 19.82372,41.95708 1.29894,5.5075 1.5636,17.62963 0.46722,21.40041 -0.48173,1.65684 -0.78897,0.72078 -1.2861,-3.91837 -1.056,-9.85442 -3.67599,-20.65123 -6.54878,-26.98703 -6.47778,-14.28643 -17.8301,-27.63473 -33.72195,-39.65094 -25.43605,-19.23281 -40.77306,-35.22854 -53.58641,-55.88791 -5.02718,-8.10549 -11.14993,-20.40223 -11.15713,-22.40765 -0.0129,-3.59694 -1.88297,-7.8828 -3.43952,-7.8828 -0.89157,0 -7.63233,2.94579 -14.97948,6.54619 -27.34582,13.40059 -41.7793,17.63539 -63.4993,18.63079 -7.64443,0.35034 -14.29114,1.02916 -14.77047,1.5085 -2.343541,2.34353 -3.281845,19.89741 -1.668765,31.21928 1.327175,9.31511 3.770755,15.7293 14.014535,36.78681 18.71128,38.46366 22.41947,49.84864 22.49784,69.07336 0.05,12.2723 -5.30133,36.02001 -11.84339,52.55728 -5.54065,14.0059 -17.59461,37.87914 -17.70747,35.07019 z"
         id="path154"
         transform="matrix(23.244684,0,0,-25.738701,-475.86597,13086.963)" /><path
         style="fill:#000000;stroke:#c5c7fb;stroke-width:0.870748;stroke-opacity:0.999959"
         d="m 345.05812,371.61901 c -4.64096,-7.09 -10.42824,-21.35986 -13.34977,-32.9169 -3.40956,-13.48756 -4.71716,-25.13902 -4.63962,-41.34157 0.0777,-16.23119 0.87977,-22.37406 1.9244,-14.73823 0.33244,2.43002 1.14544,5.15809 1.80667,6.06237 1.69107,2.31268 3.11373,0.93388 8.50239,-8.24034 5.80173,-9.87746 9.68588,-15.01411 20.64412,-27.30106 5.03182,-5.64195 10.11711,-11.61905 11.30064,-13.28245 1.18353,-1.6634 2.33715,-2.83909 2.56361,-2.61263 0.53343,0.53343 -0.98969,2.88233 -10.74782,16.57493 -13.63725,19.13576 -17.62611,27.14831 -22.32435,44.84354 -2.26926,8.54682 -2.72335,12.06444 -3.10008,24.01447 -0.51068,16.19956 0.39096,22.11441 6.00709,39.40725 3.4856,10.73262 3.86209,13.27252 1.41272,9.53062 z"
         id="path155"
         transform="matrix(23.244684,0,0,-25.738701,-475.86597,13086.963)" /></g></g></svg>
